<svg width="738" height="623" viewBox="0 0 738 623" fill="none" xmlns="http://www.w3.org/2000/svg">
    <g clip-path="url(#clip0)">
        <path d="M737.913 483.928C737.758 487.75 733.894 566.651 680.889 609.763C678.673 611.566 676.369 613.302 673.98 614.974L672.178 613.213H673.224C674.46 613.213 675.646 612.721 676.52 611.847C677.394 610.973 677.885 609.788 677.885 608.551V453.028C678.994 447.062 680.04 441.199 680.993 435.491C686.162 404.468 688.555 378.26 684.68 367.374C686.359 371.579 720.044 457.596 701.751 545.24C719.868 520.431 737.064 494.39 737.913 483.928Z" fill="#6C63FF" />
        <path d="M671.971 9.56067H33.7455C31.6858 9.56318 29.7113 10.3825 28.2549 11.8389C26.7984 13.2953 25.9791 15.2699 25.9766 17.3296V608.802C25.9774 610.862 26.7961 612.838 28.2529 614.294C29.7097 615.751 31.6853 616.57 33.7455 616.571H671.971C673.821 616.572 675.611 615.912 677.017 614.71C678.422 613.507 679.352 611.841 679.637 610.014C679.708 609.614 679.743 609.208 679.74 608.802V17.3296C679.738 15.2699 678.919 13.2953 677.462 11.8389C676.006 10.3825 674.031 9.56318 671.971 9.56067ZM676.633 608.802C676.633 610.038 676.142 611.224 675.267 612.098C674.393 612.972 673.208 613.463 671.971 613.463H33.7455C32.5093 613.463 31.3237 612.972 30.4496 612.098C29.5754 611.224 29.0843 610.038 29.0842 608.802V17.3296C29.086 16.0939 29.5777 14.9093 30.4515 14.0356C31.3253 13.1618 32.5098 12.6701 33.7455 12.6682H671.971C673.207 12.6701 674.392 13.1618 675.265 14.0356C676.139 14.9093 676.631 16.0939 676.633 17.3296V608.802Z" fill="#E6E6E6" />
        <path d="M374.079 68.0193C372.779 68.0193 371.721 70.2762 371.721 73.0506V281.01C371.721 283.784 372.779 286.041 374.079 286.041H599.643C600.943 286.041 602 283.784 602 281.01V73.0506C602 70.2762 600.943 68.0193 599.643 68.0193H374.079Z" fill="#E6E6E6" />
        <path d="M107.63 67.6188C106.645 67.6355 105.706 68.0384 105.016 68.7406C104.325 69.4429 103.938 70.3884 103.938 71.3732C103.938 72.3581 104.325 73.3035 105.016 74.0058C105.706 74.7081 106.645 75.111 107.63 75.1277H284.634C285.129 75.1379 285.62 75.0504 286.081 74.8702C286.541 74.6899 286.961 74.4205 287.317 74.0775C287.673 73.7344 287.958 73.3243 288.155 72.8709C288.353 72.4174 288.458 71.9295 288.466 71.4351C288.474 70.9407 288.385 70.4496 288.203 69.9899C288.02 69.5303 287.749 69.1111 287.405 68.7565C287.06 68.4019 286.649 68.1189 286.195 67.9236C285.74 67.7284 285.252 67.6248 284.758 67.6188C284.716 67.6181 284.675 67.6181 284.634 67.6188H107.63Z" fill="#E6E6E6" />
        <path d="M107.63 102.838C106.645 102.854 105.706 103.257 105.016 103.96C104.325 104.662 103.938 105.607 103.938 106.592C103.938 107.577 104.325 108.523 105.016 109.225C105.706 109.927 106.645 110.33 107.63 110.347H284.634C285.129 110.357 285.62 110.269 286.081 110.089C286.541 109.909 286.961 109.64 287.317 109.296C287.673 108.953 287.958 108.543 288.155 108.09C288.353 107.636 288.458 107.149 288.466 106.654C288.474 106.16 288.385 105.669 288.203 105.209C288.02 104.749 287.749 104.33 287.405 103.976C287.06 103.621 286.649 103.338 286.195 103.143C285.74 102.947 285.252 102.844 284.758 102.838C284.716 102.837 284.675 102.837 284.634 102.838H107.63Z" fill="#E6E6E6" />
        <path d="M107.63 138.057C106.645 138.074 105.706 138.476 105.016 139.179C104.325 139.881 103.938 140.826 103.938 141.811C103.938 142.796 104.325 143.742 105.016 144.444C105.706 145.146 106.645 145.549 107.63 145.566H284.634C285.129 145.576 285.62 145.488 286.081 145.308C286.541 145.128 286.961 144.859 287.317 144.515C287.673 144.172 287.958 143.762 288.155 143.309C288.353 142.855 288.458 142.368 288.466 141.873C288.474 141.379 288.385 140.888 288.203 140.428C288.02 139.968 287.749 139.549 287.405 139.195C287.06 138.84 286.649 138.557 286.195 138.362C285.74 138.166 285.252 138.063 284.758 138.057C284.716 138.056 284.675 138.056 284.634 138.057H107.63Z" fill="#E6E6E6" />
        <path d="M107.63 173.276C106.645 173.292 105.706 173.695 105.016 174.398C104.325 175.1 103.938 176.045 103.938 177.03C103.938 178.015 104.325 178.961 105.016 179.663C105.706 180.365 106.645 180.768 107.63 180.785H284.634C285.627 180.797 286.585 180.415 287.298 179.723C288.01 179.031 288.419 178.085 288.436 177.092C288.452 176.098 288.074 175.139 287.385 174.424C286.695 173.709 285.751 173.296 284.758 173.276C284.716 173.275 284.675 173.275 284.634 173.276H107.63Z" fill="#E6E6E6" />
        <path d="M107.63 208.495C106.645 208.511 105.706 208.914 105.016 209.617C104.325 210.319 103.938 211.264 103.938 212.249C103.938 213.234 104.325 214.18 105.016 214.882C105.706 215.584 106.645 215.987 107.63 216.004H284.634C285.627 216.016 286.585 215.635 287.298 214.942C288.01 214.25 288.419 213.304 288.436 212.311C288.452 211.317 288.074 210.358 287.385 209.643C286.695 208.928 285.751 208.515 284.758 208.495C284.716 208.494 284.675 208.494 284.634 208.495H107.63Z" fill="#E6E6E6" />
        <path d="M107.63 243.714C106.645 243.731 105.706 244.133 105.016 244.836C104.325 245.538 103.938 246.483 103.938 247.468C103.938 248.453 104.325 249.399 105.016 250.101C105.706 250.803 106.645 251.206 107.63 251.223H284.634C285.129 251.233 285.62 251.145 286.081 250.965C286.541 250.785 286.961 250.516 287.317 250.173C287.673 249.829 287.958 249.419 288.155 248.966C288.353 248.513 288.458 248.025 288.466 247.53C288.474 247.036 288.385 246.545 288.203 246.085C288.02 245.625 287.749 245.206 287.405 244.852C287.06 244.497 286.649 244.214 286.195 244.019C285.74 243.823 285.252 243.72 284.758 243.714C284.716 243.713 284.675 243.713 284.634 243.714H107.63Z" fill="#E6E6E6" />
        <path d="M107.63 278.933C106.645 278.95 105.706 279.352 105.016 280.055C104.325 280.757 103.938 281.702 103.938 282.687C103.938 283.672 104.325 284.618 105.016 285.32C105.706 286.022 106.645 286.425 107.63 286.442H284.634C285.129 286.452 285.62 286.364 286.081 286.184C286.541 286.004 286.961 285.735 287.317 285.392C287.673 285.048 287.958 284.638 288.155 284.185C288.353 283.732 288.458 283.244 288.466 282.749C288.474 282.255 288.385 281.764 288.203 281.304C288.02 280.844 287.749 280.425 287.405 280.071C287.06 279.716 286.649 279.433 286.195 279.238C285.74 279.042 285.252 278.939 284.758 278.933C284.716 278.932 284.675 278.932 284.634 278.933H107.63Z" fill="#E6E6E6" />
        <path d="M108.266 452.004C105.712 452.038 103.675 453.746 103.717 455.82C103.758 457.845 105.771 459.479 108.266 459.513H597.299C599.853 459.547 601.958 457.893 602 455.82C602.042 453.746 600.005 452.038 597.451 452.004C597.4 452.003 597.35 452.003 597.299 452.004H108.266Z" fill="#E6E6E6" />
        <path d="M108.266 485.004C105.712 485.038 103.675 486.746 103.717 488.82C103.758 490.845 105.771 492.479 108.266 492.513H597.299C599.853 492.547 601.958 490.893 602 488.82C602.042 486.746 600.005 485.038 597.451 485.004C597.4 485.003 597.35 485.003 597.299 485.004H108.266Z" fill="#E6E6E6" />
        <path d="M108.266 518.004C105.712 518.038 103.675 519.746 103.717 521.82C103.758 523.845 105.771 525.479 108.266 525.513H597.299C599.853 525.547 601.958 523.893 602 521.82C602.042 519.746 600.005 518.038 597.451 518.004C597.4 518.003 597.35 518.003 597.299 518.004H108.266Z" fill="#E6E6E6" />
        <path d="M108.266 551.004C105.712 551.038 103.675 552.746 103.717 554.82C103.758 556.845 105.771 558.479 108.266 558.513H597.299C599.853 558.547 601.958 556.893 602 554.82C602.042 552.746 600.005 551.038 597.451 551.004C597.4 551.003 597.35 551.003 597.299 551.004H108.266Z" fill="#E6E6E6" />
        <path d="M70.0085 622.438C108.668 622.376 140.005 619.935 140 616.987C139.995 614.038 108.651 611.698 69.9914 611.76C31.3315 611.822 -0.0047085 614.263 2.40797e-05 617.211C0.00475665 620.16 31.3486 622.5 70.0085 622.438Z" fill="#E6E6E6" />
        <path d="M239.093 151.195C238.787 151.198 238.483 151.136 238.203 151.013C237.815 150.85 237.484 150.575 237.251 150.225C237.018 149.874 236.893 149.463 236.893 149.042L235.815 3.06017C235.81 2.48491 236.033 1.93113 236.436 1.52036C236.839 1.10959 237.388 0.875358 237.963 0.869071L326.297 8.3121e-05C326.872 -0.00494608 327.426 0.218422 327.837 0.621192C328.248 1.02396 328.482 1.57323 328.488 2.14849L329.566 148.13C329.57 148.55 329.452 148.963 329.227 149.317C329.001 149.671 328.678 149.953 328.296 150.127C327.913 150.301 327.489 150.36 327.074 150.298C326.658 150.235 326.27 150.054 325.956 149.775H325.956L283.355 111.966C283.221 111.846 283.047 111.78 282.867 111.782C282.688 111.784 282.515 111.852 282.384 111.975L240.534 150.615C240.143 150.982 239.629 151.189 239.093 151.195Z" fill="#6C63FF" />
        <path d="M298.21 50.3717L285.023 50.6881L284.707 37.5011C284.695 36.9227 284.568 36.3524 284.335 35.8228C284.102 35.2933 283.767 34.8149 283.349 34.4151C282.931 34.0153 282.438 33.702 281.898 33.4931C281.359 33.2842 280.784 33.1838 280.205 33.1976C279.627 33.2115 279.057 33.3394 278.528 33.574C277.999 33.8085 277.522 34.1451 277.123 34.5645C276.725 34.9839 276.413 35.4778 276.206 36.0179C275.998 36.558 275.9 37.1337 275.915 37.7121L276.232 50.8991L263.045 51.2155C261.88 51.2451 260.775 51.7358 259.972 52.5797C259.169 53.4236 258.733 54.5518 258.761 55.7164C258.789 56.8811 259.278 57.9871 260.121 58.7915C260.963 59.5959 262.091 60.033 263.256 60.0068L276.443 59.6904L276.759 72.8774C276.79 74.0408 277.282 75.1443 278.126 75.9461C278.969 76.7478 280.096 77.1823 281.26 77.1544C282.423 77.1265 283.528 76.6384 284.333 75.7971C285.137 74.9559 285.575 73.83 285.55 72.6664L285.234 59.4794L298.421 59.163C298.999 59.15 299.568 59.0232 300.097 58.7899C300.626 58.5566 301.104 58.2213 301.503 57.8032C301.902 57.3852 302.214 56.8925 302.423 56.3535C302.631 55.8144 302.732 55.2396 302.718 54.6618C302.704 54.084 302.576 53.5146 302.342 52.9861C302.108 52.4577 301.772 51.9806 301.353 51.5822C300.935 51.1837 300.442 50.8717 299.902 50.664C299.363 50.4563 298.788 50.357 298.21 50.3717Z" fill="white" />
        <path d="M130.016 400.936H139.712V402.088L136.352 403.24V433H133.088L111.728 406.696V430.648L115.76 431.848V433H106.16V431.848L109.664 430.648V402.52L105.488 402.088V400.936H114.512L133.712 424.84V403.192L130.016 402.088V400.936ZM164.365 430.072C162.125 432.376 159.069 433.528 155.197 433.528C151.325 433.528 148.269 432.376 146.029 430.072C143.789 427.768 142.669 424.84 142.669 421.288C142.669 417.736 143.789 414.808 146.029 412.504C148.269 410.2 151.325 409.048 155.197 409.048C159.069 409.048 162.125 410.2 164.365 412.504C166.605 414.808 167.725 417.736 167.725 421.288C167.725 424.84 166.605 427.768 164.365 430.072ZM149.341 421.288C149.341 428.68 151.293 432.376 155.197 432.376C159.101 432.376 161.053 428.68 161.053 421.288C161.053 417.672 160.621 414.936 159.757 413.08C158.893 411.192 157.373 410.248 155.197 410.248C153.021 410.248 151.501 411.192 150.637 413.08C149.773 414.936 149.341 417.672 149.341 421.288ZM196.707 400.936C204.355 400.936 208.179 403.448 208.179 408.472C208.179 410.52 207.523 412.232 206.211 413.608C204.899 414.952 202.995 415.768 200.499 416.056C203.731 416.664 206.083 417.608 207.555 418.888C209.027 420.168 209.763 421.976 209.763 424.312C209.763 427.256 208.515 429.448 206.019 430.888C203.523 432.296 200.275 433 196.275 433H183.267V431.848L186.771 431.368V402.52L182.691 402.04V400.936H196.707ZM194.499 417.016L193.251 417.064V431.656C193.859 431.816 194.563 431.896 195.363 431.896C197.571 431.896 199.427 431.288 200.931 430.072C202.435 428.824 203.187 426.776 203.187 423.928C203.187 420.312 201.619 418.152 198.483 417.448C197.203 417.16 195.875 417.016 194.499 417.016ZM193.251 402.232V415.672H194.403C196.643 415.672 198.387 415.064 199.635 413.848C200.883 412.632 201.507 410.872 201.507 408.568C201.507 406.232 201.027 404.6 200.067 403.672C199.107 402.712 197.571 402.232 195.459 402.232H193.251ZM235.287 430.072C233.047 432.376 229.991 433.528 226.119 433.528C222.247 433.528 219.191 432.376 216.951 430.072C214.711 427.768 213.591 424.84 213.591 421.288C213.591 417.736 214.711 414.808 216.951 412.504C219.191 410.2 222.247 409.048 226.119 409.048C229.991 409.048 233.047 410.2 235.287 412.504C237.527 414.808 238.647 417.736 238.647 421.288C238.647 424.84 237.527 427.768 235.287 430.072ZM220.263 421.288C220.263 428.68 222.215 432.376 226.119 432.376C230.023 432.376 231.975 428.68 231.975 421.288C231.975 417.672 231.543 414.936 230.679 413.08C229.815 411.192 228.295 410.248 226.119 410.248C223.943 410.248 222.423 411.192 221.559 413.08C220.695 414.936 220.263 417.672 220.263 421.288ZM264.068 430.072C261.828 432.376 258.772 433.528 254.9 433.528C251.028 433.528 247.972 432.376 245.732 430.072C243.492 427.768 242.372 424.84 242.372 421.288C242.372 417.736 243.492 414.808 245.732 412.504C247.972 410.2 251.028 409.048 254.9 409.048C258.772 409.048 261.828 410.2 264.068 412.504C266.308 414.808 267.428 417.736 267.428 421.288C267.428 424.84 266.308 427.768 264.068 430.072ZM249.044 421.288C249.044 428.68 250.996 432.376 254.9 432.376C258.804 432.376 260.756 428.68 260.756 421.288C260.756 417.672 260.324 414.936 259.46 413.08C258.596 411.192 257.076 410.248 254.9 410.248C252.724 410.248 251.204 411.192 250.34 413.08C249.476 414.936 249.044 417.672 249.044 421.288ZM286.513 409.576H295.921V410.824L292.369 411.736L283.537 419.128L294.193 431.56L297.409 431.896V433H285.169V431.896L287.857 431.608L279.409 421.912V431.56L282.049 431.896V433H270.145V431.896L273.265 431.608V398.44L269.137 398.152V396.952L279.409 396.136V420.568L289.633 411.736L286.513 410.824V409.576ZM317.521 431.608L317.809 416.392C317.809 414.504 317.569 413.128 317.089 412.264C316.641 411.4 315.713 410.968 314.305 410.968C312.929 410.968 311.569 411.816 310.225 413.512C308.881 415.176 308.161 416.68 308.065 418.024V431.608L311.665 431.896V433H298.801V431.896L301.969 431.608V411.16L298.033 410.968V409.96L307.873 409.384L307.633 414.28H308.113C309.937 410.92 312.625 409.24 316.177 409.24C320.433 409.24 322.913 410.92 323.617 414.28C324.481 412.68 325.633 411.448 327.073 410.584C328.513 409.688 330.081 409.24 331.777 409.24C336.897 409.24 339.457 411.704 339.457 416.632C339.457 418.04 339.345 423.032 339.121 431.608L342.433 431.896V433H330.817V431.896L333.121 431.608L333.409 416.392C333.409 414.504 333.169 413.128 332.689 412.264C332.209 411.4 331.313 410.968 330.001 410.968C328.721 410.968 327.505 411.576 326.353 412.792C325.201 414.008 324.369 415.32 323.857 416.728C323.857 418.136 323.745 423.096 323.521 431.608L326.833 431.896V433H315.217V431.896L317.521 431.608ZM358.657 421.768C354.945 421.768 352.609 422.744 351.649 424.696C351.233 425.528 351.025 426.568 351.025 427.816C351.025 429.96 351.761 431.208 353.233 431.56C353.457 431.624 353.697 431.656 353.953 431.656C354.977 431.656 356.001 431.128 357.025 430.072C358.049 428.984 358.593 427.592 358.657 425.896V421.768ZM350.977 417.064C350.273 417.544 349.537 417.784 348.769 417.784C348.001 417.784 347.345 417.528 346.801 417.016C346.257 416.504 345.985 415.752 345.985 414.76C345.985 413.736 346.289 412.824 346.897 412.024C347.505 411.224 348.289 410.632 349.249 410.248C351.137 409.448 352.929 409.048 354.625 409.048C358.401 409.048 360.977 409.72 362.353 411.064C363.729 412.376 364.417 414.408 364.417 417.16V431.608L368.449 431.896V432.952L359.281 433.528L358.849 429.496C357.345 432.216 354.753 433.576 351.073 433.576C349.409 433.576 347.969 433.08 346.753 432.088C345.569 431.064 344.977 429.64 344.977 427.816C345.009 425.384 346.225 423.56 348.625 422.344C351.025 421.096 354.369 420.472 358.657 420.472V416.344C358.657 414.392 358.385 412.888 357.841 411.832C357.297 410.776 356.289 410.248 354.817 410.248C353.345 410.248 352.241 410.856 351.505 412.072C351.025 412.872 350.785 413.72 350.785 414.616C350.785 415.512 350.849 416.328 350.977 417.064ZM378.698 415.24C379.242 413.512 380.234 412.04 381.674 410.824C383.146 409.608 384.474 409 385.658 409C386.874 409 387.69 409.304 388.106 409.912C388.522 410.488 388.73 410.968 388.73 411.352C388.73 412.664 388.25 413.608 387.29 414.184C386.65 413.672 385.69 413.416 384.41 413.416C383.162 413.416 381.914 413.816 380.666 414.616C379.418 415.384 378.794 416.232 378.794 417.16V431.608L383.114 431.896V433H369.722V431.896L372.89 431.656V411.16L369.002 410.968V409.864L378.794 409.336L378.506 415.24H378.698ZM406.232 409.576H415.64V410.824L412.088 411.736L403.256 419.128L413.912 431.56L417.128 431.896V433H404.888V431.896L407.576 431.608L399.128 421.912V431.56L401.768 431.896V433H389.864V431.896L392.984 431.608V398.44L388.856 398.152V396.952L399.128 396.136V420.568L409.352 411.736L406.232 410.824V409.576ZM446.464 403.384C446.656 402.552 446.752 401.704 446.752 400.84C446.752 399.944 446.496 399.144 445.984 398.44C445.504 397.736 444.88 397.384 444.112 397.384C443.376 397.384 442.784 397.48 442.336 397.672C441.888 397.864 441.504 398.184 441.184 398.632C440.864 399.08 440.592 399.512 440.368 399.928C440.144 400.344 439.952 400.936 439.792 401.704C439.664 402.44 439.552 403.064 439.456 403.576C439.392 404.056 439.344 404.744 439.312 405.64C439.28 406.536 439.264 407.208 439.264 407.656V409.576H446.464V410.824H439.264V431.608L444.64 431.896V433H429.952V431.896L433.12 431.608V410.824H429.808V409.576H433.12V408.856C433.12 404.6 434.064 401.416 435.952 399.304C437.872 397.16 440.608 396.088 444.16 396.088C446.368 396.088 448.144 396.456 449.488 397.192C450.864 397.896 451.552 399.032 451.552 400.6C451.552 401.752 450.976 402.632 449.824 403.24C449.216 403.592 448.624 403.768 448.048 403.768C447.504 403.768 446.976 403.64 446.464 403.384ZM469.709 430.072C467.469 432.376 464.413 433.528 460.541 433.528C456.669 433.528 453.613 432.376 451.373 430.072C449.133 427.768 448.013 424.84 448.013 421.288C448.013 417.736 449.133 414.808 451.373 412.504C453.613 410.2 456.669 409.048 460.541 409.048C464.413 409.048 467.469 410.2 469.709 412.504C471.949 414.808 473.069 417.736 473.069 421.288C473.069 424.84 471.949 427.768 469.709 430.072ZM454.685 421.288C454.685 428.68 456.637 432.376 460.541 432.376C464.445 432.376 466.397 428.68 466.397 421.288C466.397 417.672 465.965 414.936 465.101 413.08C464.237 411.192 462.717 410.248 460.541 410.248C458.365 410.248 456.845 411.192 455.981 413.08C455.117 414.936 454.685 417.672 454.685 421.288ZM484.714 426.328C484.714 428.216 484.938 429.592 485.386 430.456C485.866 431.32 486.81 431.752 488.218 431.752C489.626 431.752 491.018 430.872 492.394 429.112C493.77 427.352 494.458 425.832 494.458 424.552V411.112L490.666 410.92V409.816L500.602 409.192V431.464L504.49 431.656V432.76L494.65 433.336L494.89 428.536H494.41C492.554 431.832 489.866 433.48 486.346 433.48C481.226 433.48 478.666 431.016 478.666 426.088C478.666 421.16 478.842 416.168 479.194 411.112L475.642 410.92V409.816L485.194 409.288C484.874 416.52 484.714 422.2 484.714 426.328ZM525.322 431.608L525.61 416.392C525.61 414.504 525.37 413.128 524.89 412.264C524.41 411.4 523.45 410.968 522.01 410.968C520.57 410.968 519.162 411.832 517.786 413.56C516.442 415.256 515.738 416.728 515.674 417.976V431.608L519.274 431.896V433H506.41V431.896L509.578 431.608V411.16L505.642 410.968V409.96L515.482 409.384L515.242 414.28H515.722C516.586 412.68 517.754 411.448 519.226 410.584C520.698 409.688 522.282 409.24 523.978 409.24C529.098 409.24 531.658 411.704 531.658 416.632C531.658 420.184 531.546 425.176 531.322 431.608L534.634 431.896V433H523.018V431.896L525.322 431.608ZM547.532 433.72C544.62 433.72 542.204 432.744 540.284 430.792C538.364 428.84 537.404 425.896 537.404 421.96C537.404 418.024 538.54 414.92 540.812 412.648C543.116 410.376 546.172 409.24 549.98 409.24C551.964 409.24 553.836 409.704 555.596 410.632V398.44L551.468 398.152V396.952L561.74 396.136V431.896L565.82 432.088L565.868 433.192L555.836 433.768L555.932 429.448H555.644C554.844 430.792 553.708 431.848 552.236 432.616C550.764 433.352 549.196 433.72 547.532 433.72ZM555.548 425.608V412.408C554.268 411.224 552.636 410.632 550.652 410.632C548.124 410.632 546.396 411.8 545.468 414.136C544.7 416.184 544.316 418.792 544.316 421.96C544.316 428.776 545.836 432.184 548.876 432.184C550.668 432.184 552.22 431.416 553.532 429.88C554.876 428.344 555.548 426.92 555.548 425.608Z" fill="#6C63FF" />
    </g>
    <defs>
        <clipPath id="clip0">
            <rect width="737.913" height="622.439" fill="white" />
        </clipPath>
    </defs>
</svg>
