<svg width="738" height="623" viewBox="0 0 738 623" fill="none" xmlns="http://www.w3.org/2000/svg">
    <g clip-path="url(#clip0)">
    <path d="M737.913 483.928C737.758 487.75 733.894 566.651 680.889 609.763C678.673 611.566 676.369 613.302 673.98 614.974L672.178 613.213H673.224C674.46 613.213 675.646 612.721 676.52 611.847C677.394 610.973 677.885 609.788 677.885 608.551V453.028C678.994 447.062 680.04 441.199 680.993 435.491C686.162 404.468 688.555 378.26 684.68 367.374C686.359 371.579 720.044 457.596 701.751 545.24C719.868 520.431 737.064 494.39 737.913 483.928Z" fill="#6C63FF"/>
    <path d="M671.971 9.56067H33.7455C31.6858 9.56318 29.7113 10.3825 28.2549 11.8389C26.7984 13.2953 25.9791 15.2699 25.9766 17.3296V608.802C25.9774 610.862 26.7961 612.838 28.2529 614.294C29.7097 615.751 31.6853 616.57 33.7455 616.571H671.971C673.821 616.572 675.611 615.912 677.017 614.71C678.422 613.507 679.352 611.841 679.637 610.014C679.708 609.614 679.743 609.208 679.74 608.802V17.3296C679.738 15.2699 678.919 13.2953 677.462 11.8389C676.006 10.3825 674.031 9.56318 671.971 9.56067ZM676.633 608.802C676.633 610.038 676.142 611.224 675.267 612.098C674.393 612.972 673.208 613.463 671.971 613.463H33.7455C32.5093 613.463 31.3237 612.972 30.4496 612.098C29.5754 611.224 29.0843 610.038 29.0842 608.802V17.3296C29.086 16.0939 29.5777 14.9093 30.4515 14.0356C31.3253 13.1618 32.5098 12.6701 33.7455 12.6682H671.971C673.207 12.6701 674.392 13.1618 675.265 14.0356C676.139 14.9093 676.631 16.0939 676.633 17.3296V608.802Z" fill="#E6E6E6"/>
    <path d="M374.079 68.0193C372.779 68.0193 371.721 70.2762 371.721 73.0506V281.01C371.721 283.784 372.779 286.041 374.079 286.041H599.643C600.943 286.041 602 283.784 602 281.01V73.0506C602 70.2762 600.943 68.0193 599.643 68.0193H374.079Z" fill="#E6E6E6"/>
    <path d="M107.63 67.6188C106.645 67.6355 105.706 68.0384 105.016 68.7406C104.325 69.4429 103.938 70.3884 103.938 71.3732C103.938 72.3581 104.325 73.3035 105.016 74.0058C105.706 74.7081 106.645 75.111 107.63 75.1277H284.634C285.129 75.1379 285.62 75.0504 286.081 74.8702C286.541 74.6899 286.961 74.4205 287.317 74.0775C287.673 73.7344 287.958 73.3243 288.155 72.8709C288.353 72.4174 288.458 71.9295 288.466 71.4351C288.474 70.9407 288.385 70.4496 288.203 69.9899C288.02 69.5303 287.749 69.1111 287.405 68.7565C287.06 68.4019 286.649 68.1189 286.195 67.9236C285.74 67.7284 285.252 67.6248 284.758 67.6188C284.716 67.6181 284.675 67.6181 284.634 67.6188H107.63Z" fill="#E6E6E6"/>
    <path d="M107.63 102.838C106.645 102.854 105.706 103.257 105.016 103.96C104.325 104.662 103.938 105.607 103.938 106.592C103.938 107.577 104.325 108.523 105.016 109.225C105.706 109.927 106.645 110.33 107.63 110.347H284.634C285.129 110.357 285.62 110.269 286.081 110.089C286.541 109.909 286.961 109.64 287.317 109.296C287.673 108.953 287.958 108.543 288.155 108.09C288.353 107.636 288.458 107.149 288.466 106.654C288.474 106.16 288.385 105.669 288.203 105.209C288.02 104.749 287.749 104.33 287.405 103.976C287.06 103.621 286.649 103.338 286.195 103.143C285.74 102.947 285.252 102.844 284.758 102.838C284.716 102.837 284.675 102.837 284.634 102.838H107.63Z" fill="#E6E6E6"/>
    <path d="M107.63 138.057C106.645 138.074 105.706 138.476 105.016 139.179C104.325 139.881 103.938 140.826 103.938 141.811C103.938 142.796 104.325 143.742 105.016 144.444C105.706 145.146 106.645 145.549 107.63 145.566H284.634C285.129 145.576 285.62 145.488 286.081 145.308C286.541 145.128 286.961 144.859 287.317 144.515C287.673 144.172 287.958 143.762 288.155 143.309C288.353 142.855 288.458 142.368 288.466 141.873C288.474 141.379 288.385 140.888 288.203 140.428C288.02 139.968 287.749 139.549 287.405 139.195C287.06 138.84 286.649 138.557 286.195 138.362C285.74 138.166 285.252 138.063 284.758 138.057C284.716 138.056 284.675 138.056 284.634 138.057H107.63Z" fill="#E6E6E6"/>
    <path d="M107.63 173.276C106.645 173.292 105.706 173.695 105.016 174.398C104.325 175.1 103.938 176.045 103.938 177.03C103.938 178.015 104.325 178.961 105.016 179.663C105.706 180.365 106.645 180.768 107.63 180.785H284.634C285.627 180.797 286.585 180.415 287.298 179.723C288.01 179.031 288.419 178.085 288.436 177.092C288.452 176.098 288.074 175.139 287.385 174.424C286.695 173.709 285.751 173.296 284.758 173.276C284.716 173.275 284.675 173.275 284.634 173.276H107.63Z" fill="#E6E6E6"/>
    <path d="M107.63 208.495C106.645 208.511 105.706 208.914 105.016 209.617C104.325 210.319 103.938 211.264 103.938 212.249C103.938 213.234 104.325 214.18 105.016 214.882C105.706 215.584 106.645 215.987 107.63 216.004H284.634C285.627 216.016 286.585 215.635 287.298 214.942C288.01 214.25 288.419 213.304 288.436 212.311C288.452 211.317 288.074 210.358 287.385 209.643C286.695 208.928 285.751 208.515 284.758 208.495C284.716 208.494 284.675 208.494 284.634 208.495H107.63Z" fill="#E6E6E6"/>
    <path d="M107.63 243.714C106.645 243.731 105.706 244.133 105.016 244.836C104.325 245.538 103.938 246.483 103.938 247.468C103.938 248.453 104.325 249.399 105.016 250.101C105.706 250.803 106.645 251.206 107.63 251.223H284.634C285.129 251.233 285.62 251.145 286.081 250.965C286.541 250.785 286.961 250.516 287.317 250.173C287.673 249.829 287.958 249.419 288.155 248.966C288.353 248.513 288.458 248.025 288.466 247.53C288.474 247.036 288.385 246.545 288.203 246.085C288.02 245.625 287.749 245.206 287.405 244.852C287.06 244.497 286.649 244.214 286.195 244.019C285.74 243.823 285.252 243.72 284.758 243.714C284.716 243.713 284.675 243.713 284.634 243.714H107.63Z" fill="#E6E6E6"/>
    <path d="M107.63 278.933C106.645 278.95 105.706 279.352 105.016 280.055C104.325 280.757 103.938 281.702 103.938 282.687C103.938 283.672 104.325 284.618 105.016 285.32C105.706 286.022 106.645 286.425 107.63 286.442H284.634C285.129 286.452 285.62 286.364 286.081 286.184C286.541 286.004 286.961 285.735 287.317 285.392C287.673 285.048 287.958 284.638 288.155 284.185C288.353 283.732 288.458 283.244 288.466 282.749C288.474 282.255 288.385 281.764 288.203 281.304C288.02 280.844 287.749 280.425 287.405 280.071C287.06 279.716 286.649 279.433 286.195 279.238C285.74 279.042 285.252 278.939 284.758 278.933C284.716 278.932 284.675 278.932 284.634 278.933H107.63Z" fill="#E6E6E6"/>
    <path d="M108.266 452.004C105.712 452.038 103.675 453.746 103.717 455.82C103.758 457.845 105.771 459.479 108.266 459.513H597.299C599.853 459.547 601.958 457.893 602 455.82C602.042 453.746 600.005 452.038 597.451 452.004C597.4 452.003 597.35 452.003 597.299 452.004H108.266Z" fill="#E6E6E6"/>
    <path d="M108.266 485.004C105.712 485.038 103.675 486.746 103.717 488.82C103.758 490.845 105.771 492.479 108.266 492.513H597.299C599.853 492.547 601.958 490.893 602 488.82C602.042 486.746 600.005 485.038 597.451 485.004C597.4 485.003 597.35 485.003 597.299 485.004H108.266Z" fill="#E6E6E6"/>
    <path d="M108.266 518.004C105.712 518.038 103.675 519.746 103.717 521.82C103.758 523.845 105.771 525.479 108.266 525.513H597.299C599.853 525.547 601.958 523.893 602 521.82C602.042 519.746 600.005 518.038 597.451 518.004C597.4 518.003 597.35 518.003 597.299 518.004H108.266Z" fill="#E6E6E6"/>
    <path d="M108.266 551.004C105.712 551.038 103.675 552.746 103.717 554.82C103.758 556.845 105.771 558.479 108.266 558.513H597.299C599.853 558.547 601.958 556.893 602 554.82C602.042 552.746 600.005 551.038 597.451 551.004C597.4 551.003 597.35 551.003 597.299 551.004H108.266Z" fill="#E6E6E6"/>
    <path d="M70.0085 622.438C108.668 622.376 140.005 619.935 140 616.987C139.995 614.038 108.651 611.698 69.9914 611.76C31.3315 611.822 -0.0047085 614.263 2.40797e-05 617.211C0.00475665 620.16 31.3486 622.5 70.0085 622.438Z" fill="#E6E6E6"/>
    <path d="M239.093 151.195C238.787 151.198 238.483 151.136 238.203 151.013C237.815 150.85 237.484 150.575 237.251 150.225C237.018 149.874 236.893 149.463 236.893 149.042L235.815 3.06017C235.81 2.48491 236.033 1.93113 236.436 1.52036C236.839 1.10959 237.388 0.875358 237.963 0.869071L326.297 8.3121e-05C326.872 -0.00494608 327.426 0.218422 327.837 0.621192C328.248 1.02396 328.482 1.57323 328.488 2.14849L329.566 148.13C329.57 148.55 329.452 148.963 329.227 149.317C329.001 149.671 328.678 149.953 328.296 150.127C327.913 150.301 327.489 150.36 327.074 150.298C326.658 150.235 326.27 150.054 325.956 149.775H325.956L283.355 111.966C283.221 111.846 283.047 111.78 282.867 111.782C282.688 111.784 282.515 111.852 282.384 111.975L240.534 150.615C240.143 150.982 239.629 151.189 239.093 151.195Z" fill="#6C63FF"/>
    <path d="M298.21 50.3717L285.023 50.6881L284.707 37.5011C284.695 36.9227 284.568 36.3524 284.335 35.8228C284.102 35.2933 283.767 34.8149 283.349 34.4151C282.931 34.0153 282.438 33.702 281.898 33.4931C281.359 33.2842 280.784 33.1838 280.205 33.1976C279.627 33.2115 279.057 33.3394 278.528 33.574C277.999 33.8085 277.522 34.1451 277.123 34.5645C276.725 34.9839 276.413 35.4778 276.206 36.0179C275.998 36.558 275.9 37.1337 275.915 37.7121L276.232 50.8991L263.045 51.2155C261.88 51.2451 260.775 51.7358 259.972 52.5797C259.169 53.4236 258.733 54.5518 258.761 55.7164C258.789 56.8811 259.278 57.9871 260.121 58.7915C260.963 59.5959 262.091 60.033 263.256 60.0068L276.443 59.6904L276.759 72.8774C276.79 74.0408 277.282 75.1443 278.126 75.9461C278.969 76.7478 280.096 77.1823 281.26 77.1544C282.423 77.1265 283.528 76.6384 284.333 75.7971C285.137 74.9559 285.575 73.83 285.55 72.6664L285.234 59.4794L298.421 59.163C298.999 59.15 299.568 59.0232 300.097 58.7899C300.626 58.5566 301.104 58.2213 301.503 57.8032C301.902 57.3852 302.214 56.8925 302.423 56.3535C302.631 55.8144 302.732 55.2396 302.718 54.6618C302.704 54.084 302.576 53.5146 302.342 52.9861C302.108 52.4577 301.772 51.9806 301.353 51.5822C300.935 51.1837 300.442 50.8717 299.902 50.664C299.363 50.4563 298.788 50.357 298.21 50.3717Z" fill="white"/>
    <path d="M130.016 400.936H139.712V402.088L136.352 403.24V433H133.088L111.728 406.696V430.648L115.76 431.848V433H106.16V431.848L109.664 430.648V402.52L105.488 402.088V400.936H114.512L133.712 424.84V403.192L130.016 402.088V400.936ZM164.365 430.072C162.125 432.376 159.069 433.528 155.197 433.528C151.325 433.528 148.269 432.376 146.029 430.072C143.789 427.768 142.669 424.84 142.669 421.288C142.669 417.736 143.789 414.808 146.029 412.504C148.269 410.2 151.325 409.048 155.197 409.048C159.069 409.048 162.125 410.2 164.365 412.504C166.605 414.808 167.725 417.736 167.725 421.288C167.725 424.84 166.605 427.768 164.365 430.072ZM149.341 421.288C149.341 428.68 151.293 432.376 155.197 432.376C159.101 432.376 161.053 428.68 161.053 421.288C161.053 417.672 160.621 414.936 159.757 413.08C158.893 411.192 157.373 410.248 155.197 410.248C153.021 410.248 151.501 411.192 150.637 413.08C149.773 414.936 149.341 417.672 149.341 421.288ZM189.978 431.608L190.266 416.392C190.266 414.504 190.026 413.128 189.546 412.264C189.066 411.4 188.106 410.968 186.666 410.968C185.226 410.968 183.818 411.832 182.442 413.56C181.098 415.256 180.394 416.728 180.33 417.976V431.608L183.93 431.896V433H171.066V431.896L174.234 431.608V411.16L170.298 410.968V409.96L180.138 409.384L179.898 414.28H180.378C181.242 412.68 182.41 411.448 183.882 410.584C185.354 409.688 186.938 409.24 188.634 409.24C193.754 409.24 196.314 411.704 196.314 416.632C196.314 420.184 196.202 425.176 195.978 431.608L199.29 431.896V433H187.674V431.896L189.978 431.608ZM218.045 416.248C218.045 412.344 216.685 410.392 213.965 410.392C211.117 410.392 209.389 412.888 208.781 417.88H217.949C218.013 417.24 218.045 416.696 218.045 416.248ZM213.533 433.528C210.109 433.528 207.325 432.408 205.181 430.168C203.069 427.928 202.013 424.968 202.013 421.288C202.013 417.608 203.117 414.648 205.325 412.408C207.565 410.168 210.397 409.048 213.821 409.048C217.245 409.048 219.805 409.784 221.501 411.256C223.197 412.696 224.045 414.712 224.045 417.304C224.045 418.04 223.981 418.808 223.853 419.608H208.637V421.288C208.637 424.872 209.085 427.592 209.981 429.448C210.877 431.272 212.221 432.184 214.013 432.184C215.837 432.184 217.485 431.816 218.957 431.08C220.461 430.312 221.629 429.24 222.461 427.864C223.165 428.088 223.517 428.424 223.517 428.872C223.517 429.672 222.765 430.6 221.261 431.656C220.525 432.168 219.469 432.616 218.093 433C216.749 433.352 215.229 433.528 213.533 433.528ZM255.308 403.384C255.5 402.552 255.596 401.704 255.596 400.84C255.596 399.944 255.34 399.144 254.828 398.44C254.348 397.736 253.724 397.384 252.956 397.384C252.22 397.384 251.628 397.48 251.18 397.672C250.732 397.864 250.348 398.184 250.028 398.632C249.708 399.08 249.436 399.512 249.212 399.928C248.988 400.344 248.796 400.936 248.636 401.704C248.508 402.44 248.396 403.064 248.3 403.576C248.236 404.056 248.188 404.744 248.156 405.64C248.124 406.536 248.108 407.208 248.108 407.656V409.576H255.308V410.824H248.108V431.608L253.484 431.896V433H238.796V431.896L241.964 431.608V410.824H238.652V409.576H241.964V408.856C241.964 404.6 242.908 401.416 244.796 399.304C246.716 397.16 249.452 396.088 253.004 396.088C255.212 396.088 256.988 396.456 258.332 397.192C259.708 397.896 260.396 399.032 260.396 400.6C260.396 401.752 259.82 402.632 258.668 403.24C258.06 403.592 257.468 403.768 256.892 403.768C256.348 403.768 255.82 403.64 255.308 403.384ZM278.552 430.072C276.312 432.376 273.256 433.528 269.384 433.528C265.512 433.528 262.456 432.376 260.216 430.072C257.976 427.768 256.856 424.84 256.856 421.288C256.856 417.736 257.976 414.808 260.216 412.504C262.456 410.2 265.512 409.048 269.384 409.048C273.256 409.048 276.312 410.2 278.552 412.504C280.792 414.808 281.912 417.736 281.912 421.288C281.912 424.84 280.792 427.768 278.552 430.072ZM263.528 421.288C263.528 428.68 265.48 432.376 269.384 432.376C273.288 432.376 275.24 428.68 275.24 421.288C275.24 417.672 274.808 414.936 273.944 413.08C273.08 411.192 271.56 410.248 269.384 410.248C267.208 410.248 265.688 411.192 264.824 413.08C263.96 414.936 263.528 417.672 263.528 421.288ZM293.558 426.328C293.558 428.216 293.782 429.592 294.23 430.456C294.71 431.32 295.654 431.752 297.062 431.752C298.47 431.752 299.862 430.872 301.238 429.112C302.614 427.352 303.302 425.832 303.302 424.552V411.112L299.51 410.92V409.816L309.446 409.192V431.464L313.334 431.656V432.76L303.494 433.336L303.734 428.536H303.254C301.398 431.832 298.71 433.48 295.19 433.48C290.07 433.48 287.51 431.016 287.51 426.088C287.51 421.16 287.686 416.168 288.038 411.112L284.486 410.92V409.816L294.038 409.288C293.718 416.52 293.558 422.2 293.558 426.328ZM334.166 431.608L334.454 416.392C334.454 414.504 334.214 413.128 333.734 412.264C333.254 411.4 332.294 410.968 330.854 410.968C329.414 410.968 328.006 411.832 326.63 413.56C325.286 415.256 324.582 416.728 324.518 417.976V431.608L328.118 431.896V433H315.254V431.896L318.422 431.608V411.16L314.486 410.968V409.96L324.326 409.384L324.086 414.28H324.566C325.43 412.68 326.598 411.448 328.07 410.584C329.542 409.688 331.126 409.24 332.822 409.24C337.942 409.24 340.502 411.704 340.502 416.632C340.502 420.184 340.39 425.176 340.166 431.608L343.478 431.896V433H331.862V431.896L334.166 431.608ZM356.376 433.72C353.464 433.72 351.048 432.744 349.128 430.792C347.208 428.84 346.248 425.896 346.248 421.96C346.248 418.024 347.384 414.92 349.656 412.648C351.96 410.376 355.016 409.24 358.824 409.24C360.808 409.24 362.68 409.704 364.44 410.632V398.44L360.312 398.152V396.952L370.584 396.136V431.896L374.664 432.088L374.712 433.192L364.68 433.768L364.776 429.448H364.488C363.688 430.792 362.552 431.848 361.08 432.616C359.608 433.352 358.04 433.72 356.376 433.72ZM364.392 425.608V412.408C363.112 411.224 361.48 410.632 359.496 410.632C356.968 410.632 355.24 411.8 354.312 414.136C353.544 416.184 353.16 418.792 353.16 421.96C353.16 428.776 354.68 432.184 357.72 432.184C359.512 432.184 361.064 431.416 362.376 429.88C363.72 428.344 364.392 426.92 364.392 425.608Z" fill="#6C63FF"/>
    </g>
    <defs>
    <clipPath id="clip0">
    <rect width="737.913" height="622.439" fill="white"/>
    </clipPath>
    </defs>
    </svg>
